<?xml version="1.0" encoding="UTF-8"?>
<!DOCTYPE svg PUBLIC "-//W3C//DTD SVG 1.1//EN" "http://www.w3.org/Graphics/SVG/1.1/DTD/svg11.dtd">
<!-- Creator: CorelDRAW X7 -->
<svg xmlns="http://www.w3.org/2000/svg" xml:space="preserve" width="74.5428mm" height="51.5909mm" version="1.1" style="shape-rendering:geometricPrecision; text-rendering:geometricPrecision; image-rendering:optimizeQuality; fill-rule:evenodd; clip-rule:evenodd"
viewBox="0 0 7454 5159"
 xmlns:xlink="http://www.w3.org/1999/xlink">
 <defs>
  <style type="text/css">
   <![CDATA[
    .fil0 {fill:"currentColor"}
   ]]>
  </style>
 </defs>
 <g id="Layer_x0020_1">
  <metadata id="CorelCorpID_0Corel-Layer"/>
  <g id="_2008538046704">
   <path class="fil0" d="M1951 891c21,0 40,14 47,35l29 91c1,3 4,4 6,4 3,0 5,-1 6,-4l30 -91c6,-21 25,-35 47,-35l96 0c3,0 5,-1 6,-4 1,-2 0,-5 -2,-7l-78 -56c-18,-13 -25,-35 -18,-56l30 -91c0,-3 0,-5 -3,-7 -2,-2 -5,-2 -7,0 -26,19 -55,39 -81,59 -16,11 -36,12 -52,0 -27,-19 -54,-39 -81,-59 -2,-1 -5,-1 -7,0 -2,2 -3,5 -2,7l30 91c6,21 -1,43 -18,56l-78 56c-2,2 -3,5 -2,7 0,3 3,4 5,4l97 0zm-1110 596c466,0 841,176 844,357 2,145 -240,208 -575,228 4,-39 8,-77 12,-115 141,-10 233,-34 232,-96 -2,-97 -229,-167 -512,-167 -283,0 -511,72 -511,175 0,65 92,85 232,91 4,38 8,76 13,114 -336,-13 -576,-63 -576,-215 0,-191 375,-372 841,-372zm-560 -801c291,-168 832,-168 1123,0 16,9 25,27 23,46l-81 805c-9,-3 -17,-6 -26,-9l14 -136c-327,-73 -657,-76 -983,0l14 138c-9,2 -17,5 -26,8l-81 -806c-2,-19 7,-37 23,-46zm697 -48c128,12 256,27 381,84 11,5 17,15 16,27l-23 266c-12,-109 -21,-199 -25,-241 -1,-9 -6,-16 -14,-20 -99,-54 -219,-83 -335,-116zm1137 -320c14,0 26,9 31,22l18 59c1,2 2,3 4,3 2,0 3,-1 4,-3l19 -59c4,-13 16,-22 30,-22l62 0c2,0 3,-1 4,-2 0,-2 0,-4 -2,-5l-50 -36c-11,-8 -16,-22 -11,-35l19 -59c0,-2 0,-3 -2,-4 -1,-1 -3,-2 -4,-1 -17,13 -36,25 -52,38 -10,8 -24,8 -34,1 -17,-13 -34,-26 -51,-38 -2,-1 -4,-1 -5,0 -1,1 -2,2 -1,4l19 59c4,13 -1,27 -12,35l-50 36c-1,1 -2,3 -1,5 0,1 2,2 4,2l61 0zm-535 98c16,0 30,10 34,25l22 67c1,2 2,3 4,3 2,0 4,-1 5,-3l21 -67c5,-15 19,-25 34,-25l70 1c2,0 4,-2 5,-4 0,-1 0,-3 -2,-5l-57 -41c-12,-9 -18,-25 -13,-40l22 -67c1,-2 0,-3 -2,-5 -1,-1 -3,-1 -5,0 -19,14 -40,29 -59,43 -11,9 -26,9 -38,1 -19,-15 -39,-29 -58,-43 -2,-2 -4,-2 -6,0 -1,1 -2,3 -1,5l21 66c5,15 0,31 -13,40l-57 41c-1,2 -2,4 -1,5 0,2 2,4 4,4l70 -1z"/>
   <path class="fil0" d="M1749 5159c-3,-1 -7,-8 -9,-12 -35,-67 -70,-365 360,-1664 240,-724 508,-1407 511,-1414l-118 -64c-4,6 -417,581 -893,1149 -824,982 -1151,1128 -1272,1128l0 0c-7,0 -12,0 -18,-1 -22,-3 -55,-14 -85,-66 -144,-250 80,-1392 295,-2118 21,1 39,2 55,2 7,1 14,-2 19,-8 5,-5 7,-12 6,-19 -4,-38 -8,-76 -12,-114 -1,-11 -9,-19 -19,-22 25,-76 49,-144 72,-204 67,-10 137,-13 201,-13 102,0 217,8 318,35 -8,59 -17,118 -27,177l-12 1c-12,1 -22,10 -23,22 -5,38 -9,77 -13,115 -1,8 1,15 7,20 3,4 7,6 11,7 -47,258 -103,503 -147,669l122 54c4,-7 439,-670 964,-1325 674,-841 1208,-1304 1504,-1304 82,0 143,35 192,110 20,31 71,193 -114,1007 -101,445 -224,867 -225,871l114 66c5,-6 550,-571 1194,-1129 843,-729 1470,-1115 1812,-1115 109,0 256,33 288,321 67,619 -400,1507 -776,2220 -349,664 -625,1189 -476,1436 53,88 154,134 300,134 49,0 104,-5 165,-15 565,-92 1079,-365 1434,-598 -474,514 -1300,1275 -2039,1275 -197,0 -378,-55 -539,-164 -497,-336 124,-2056 406,-2690l-112 -73c-8,8 -764,843 -1565,1666 -470,483 -863,868 -1169,1143 -517,468 -655,504 -685,504 -1,0 -1,0 -2,0z"/>
  </g>
 </g>
</svg>
